<svg width="144" height="200" viewBox="0 0 144 200" fill="none" xmlns="http://www.w3.org/2000/svg">
<g clip-path="url(#clip0_1:1369)">
<path d="M140.227 21.8094H9.84382C9.41979 21.8094 9.07605 22.1531 9.07605 22.5772V198.674C9.07605 199.098 9.41979 199.441 9.84382 199.441H140.227C140.651 199.441 140.995 199.098 140.995 198.674V22.5772C140.995 22.1531 140.651 21.8094 140.227 21.8094Z" fill="#3CB0C3"/>
<path d="M13.4188 177.851H140.899C140.912 177.851 140.924 177.853 140.936 177.858C140.948 177.862 140.959 177.869 140.968 177.878C140.977 177.887 140.984 177.898 140.989 177.91C140.993 177.922 140.995 177.935 140.995 177.947V199.668C140.995 199.68 140.992 199.692 140.988 199.704C140.983 199.715 140.976 199.726 140.967 199.734C140.958 199.743 140.947 199.75 140.935 199.754C140.924 199.759 140.911 199.761 140.899 199.76L26.6422 200L13.477 199.825C13.4222 199.825 13.3262 199.716 13.3262 199.664V177.947C13.3258 177.935 13.3278 177.922 13.3323 177.911C13.3367 177.899 13.3435 177.889 13.3521 177.88C13.3607 177.871 13.3711 177.864 13.3826 177.859C13.394 177.854 13.4063 177.851 13.4188 177.851Z" fill="#929496"/>
<path d="M137.711 22.0733H8.26377C7.906 22.0733 7.61597 22.3633 7.61597 22.7211V171.473C7.61597 171.83 7.906 172.12 8.26377 172.12H137.711C138.069 172.12 138.359 171.83 138.359 171.473V22.7211C138.359 22.3633 138.069 22.0733 137.711 22.0733Z" fill="white"/>
<path d="M9.71015 23.8659C9.61398 23.8673 9.51902 23.8876 9.43073 23.9257C9.34244 23.9639 9.26256 24.0191 9.19567 24.0882C9.12879 24.1573 9.07622 24.239 9.04099 24.3285C9.00575 24.418 8.98855 24.5135 8.99036 24.6097V195.229C8.989 195.325 9.00655 195.42 9.04198 195.509C9.07742 195.598 9.13006 195.679 9.1969 195.748C9.26374 195.817 9.34347 195.872 9.43153 195.91C9.5196 195.948 9.61427 195.968 9.71015 195.969H135.01C131.583 188.939 132.553 184.514 138.438 178.917L138.356 24.6097C138.358 24.5135 138.34 24.418 138.305 24.3285C138.27 24.239 138.217 24.1573 138.15 24.0882C138.084 24.0191 138.004 23.9639 137.915 23.9257C137.827 23.8876 137.732 23.8673 137.636 23.8659H9.71015Z" fill="white"/>
<path d="M8.99048 175.181V185.392H133.674C134.483 183.363 137.262 179.603 139.758 177.851L138.356 175.178L8.99048 175.181Z" fill="#BBBCBE"/>
<path d="M13.1172 7.52672e-06C19.345 7.52672e-06 22.5498 5.09332 22.5498 11.3109V188.309C22.5498 194.537 19.7735 199.822 13.5456 199.822C13.5456 199.822 11.9827 199.77 11.5097 199.736C10.8178 199.685 10.1306 199.584 9.45316 199.434C4.15077 198.262 2.41187e-05 193.923 2.41187e-05 188.316V11.3109C-0.0205411 -0.455855 13.1172 7.52672e-06 13.1172 7.52672e-06Z" fill="#757575"/>
<path d="M13.405 199.798V194.838L21.8573 195.126L22.2104 199.87" fill="#929496"/>
<path d="M19.2387 177.512C19.2387 177.512 32.5341 181.7 32.5341 186.866C32.5341 192.031 30.3268 195.849 22.985 195.983C10.591 196.213 5.65881 192.213 5.65881 187.034C5.65881 181.855 19.2387 177.512 19.2387 177.512Z" fill="white"/>
<path d="M143.11 0.00343323H13.9158C13.4918 0.00343323 13.1481 0.347174 13.1481 0.771201V177.186C13.1481 177.61 13.4918 177.954 13.9158 177.954H143.11C143.534 177.954 143.878 177.61 143.878 177.186V0.771201C143.878 0.347174 143.534 0.00343323 143.11 0.00343323Z" fill="#EEEEEE"/>
<path d="M143.984 0.00343323H13.1481V177.954H143.984V0.00343323Z" fill="#D0D1D3"/>
<path d="M32.6816 177.968C30.625 177.968 13.1755 177.913 13.1755 177.913C13.1755 177.913 5.65889 179.575 5.60062 186.173C5.5732 189.471 6.62888 191.51 8.92875 193.059C8.19183 188.857 11.0367 185.604 17.5387 185.43C21.237 185.32 32.3388 185.409 32.3388 185.409C31.2317 180.837 39.1425 177.968 32.6816 177.968Z" fill="#BBBCBE"/>
<path d="M69.4829 21.7134L71.9507 37.8948L74.1718 37.888L71.7142 21.7169L69.4829 21.7134Z" fill="#0088CF"/>
<path d="M69.3768 21.7134H65.5996V37.8434H69.3768V21.7134Z" fill="#0088CF"/>
<path d="M58.1961 21.71H44.3077V37.8434H56.8114L58.1961 21.71Z" fill="#0088CF"/>
<path d="M60.16 37.8434H64.3793L64.3965 21.7134H61.5448L60.16 37.8434Z" fill="#0088CF"/>
<path d="M82.2609 29.1786H80.955V26.1247C80.4296 26.4735 79.81 26.6529 79.1795 26.6388C78.0519 26.6388 76.9139 26.0321 76.9139 24.2395V21.7374H78.2233V23.8831C78.2233 25.0758 78.7957 25.4152 79.5292 25.4152C80.0421 25.4037 80.5395 25.2364 80.955 24.9353V21.7374H82.2609V29.1786Z" fill="#0088CF"/>
<path d="M83.673 29.1786V21.7374H84.9823V27.0295L88.8794 21.7374H90.0311V29.1786H88.7217V23.8933L84.8212 29.1786H83.673Z" fill="#0088CF"/>
<path d="M91.1689 21.7374H97.3008V22.9576H94.8878V29.1786H93.5819V22.9576H91.1689V21.7374Z" fill="#0088CF"/>
<path d="M99.3265 21.7134H100.475L103.621 29.1786H102.23L101.455 27.2763H98.2777L97.4996 29.1786H96.1835L99.3265 21.7134ZM98.7747 26.0493H100.955L99.8715 23.4032L98.7747 26.0493Z" fill="#0088CF"/>
<path d="M104.42 29.1786V21.7374H105.726V27.0295L109.63 21.7374H110.774V29.1786H109.469V23.8933L105.568 29.1786H104.42Z" fill="#0088CF"/>
<path d="M76.8488 30.4125H81.0509V31.6361H78.1581V37.8537H76.8488V30.4125Z" fill="#0088CF"/>
<path d="M109.64 19.7666H105.828V20.9971H108.752L109.64 19.7666Z" fill="#0088CF"/>
<path d="M85.2804 30.296C87.4912 30.296 89.1604 31.8178 89.1604 34.1314C89.1728 34.6424 89.0807 35.1506 88.8896 35.6247C88.6984 36.0988 88.4124 36.5288 88.049 36.8883C87.6857 37.2479 87.2526 37.5293 86.7765 37.7153C86.3004 37.9014 85.7913 37.9881 85.2804 37.9702C83.0696 37.9702 81.4107 36.4484 81.4107 34.1314C81.3973 33.6211 81.4885 33.1136 81.6786 32.6399C81.8688 32.1662 82.1539 31.7365 82.5165 31.3772C82.879 31.0179 83.3112 30.7366 83.7866 30.5506C84.2619 30.3647 84.7703 30.278 85.2804 30.296ZM85.2804 36.7466C86.8433 36.7466 87.7791 35.5984 87.7791 34.1314C87.7939 33.7946 87.7402 33.4584 87.6212 33.143C87.5022 32.8276 87.3203 32.5397 87.0866 32.2968C86.853 32.0538 86.5724 31.8608 86.2619 31.7296C85.9514 31.5984 85.6175 31.5316 85.2804 31.5333C83.8545 31.5333 82.792 32.6096 82.792 34.1485C82.7787 34.4849 82.833 34.8205 82.9517 35.1355C83.0705 35.4504 83.2512 35.7384 83.4833 35.9823C83.7153 36.2261 83.9939 36.4209 84.3026 36.5552C84.6113 36.6894 84.9438 36.7603 85.2804 36.7637" fill="#0088CF"/>
<path d="M90.3497 37.8537V30.4125C90.7645 30.4125 91.9435 30.392 92.4645 30.392C94.6547 30.392 95.3471 31.5607 95.3471 32.7912C95.3471 34.0217 94.4011 35.1905 92.6256 35.1905C92.4028 35.1905 91.9778 35.1905 91.6591 35.1597V37.8503L90.3497 37.8537ZM91.6591 31.6361V33.9326C91.9675 33.9634 92.2829 33.984 92.581 33.984C93.3591 33.984 93.9521 33.6104 93.9521 32.7809C93.9521 32.0063 93.4722 31.6224 92.581 31.6224C92.3137 31.6224 91.9949 31.6224 91.6453 31.6464" fill="#0088CF"/>
<path d="M100.122 30.296C102.332 30.296 104.002 31.8178 104.002 34.1314C104.014 34.6424 103.922 35.1506 103.731 35.6247C103.54 36.0988 103.254 36.5288 102.89 36.8883C102.527 37.2479 102.094 37.5293 101.618 37.7153C101.142 37.9014 100.633 37.9881 100.122 37.9702C97.9075 37.9702 96.252 36.4484 96.252 34.1314C96.2386 33.6211 96.3298 33.1136 96.52 32.6399C96.7101 32.1662 96.9952 31.7365 97.3578 31.3772C97.7203 31.0179 98.1525 30.7366 98.6279 30.5506C99.1032 30.3647 99.6116 30.278 100.122 30.296ZM100.122 36.7466C101.685 36.7466 102.62 35.5984 102.62 34.1314C102.635 33.7946 102.582 33.4584 102.462 33.143C102.343 32.8276 102.162 32.5397 101.928 32.2968C101.694 32.0538 101.414 31.8608 101.103 31.7296C100.793 31.5984 100.459 31.5316 100.122 31.5333C98.6958 31.5333 97.6333 32.6096 97.6333 34.1485C97.6195 34.485 97.6735 34.8208 97.7921 35.136C97.9106 35.4512 98.0913 35.7393 98.3235 35.9833C98.5556 36.2272 98.8344 36.4221 99.1433 36.5561C99.4522 36.6902 99.785 36.7608 100.122 36.7637" fill="#0088CF"/>
<path d="M104.115 36.6301H105.126C105.979 32.9283 106.497 30.4125 106.497 30.4125H110.75V36.6301H111.762V39.1836H110.538V37.8537H105.338V39.1836H104.115V36.6301ZM106.432 36.6301H109.451V31.6361H107.484C107.484 31.6361 107.018 34.0354 106.432 36.6301Z" fill="#0088CF"/>
<path d="M95.2443 68.1017H61.5002C60.4685 68.1017 59.6322 68.938 59.6322 69.9697C59.6322 71.0014 60.4685 71.8377 61.5002 71.8377H95.2443C96.2759 71.8377 97.1123 71.0014 97.1123 69.9697C97.1123 68.938 96.2759 68.1017 95.2443 68.1017Z" fill="#BBBCBE"/>
<path d="M95.2443 116.402H61.5002C60.4685 116.402 59.6322 117.239 59.6322 118.27C59.6322 119.302 60.4685 120.138 61.5002 120.138H95.2443C96.2759 120.138 97.1123 119.302 97.1123 118.27C97.1123 117.239 96.2759 116.402 95.2443 116.402Z" fill="#BBBCBE"/>
<path d="M93.8596 71.4332C93.2975 91.3815 78.4905 93.7979 78.4905 93.7979C78.4905 93.7979 64.0572 92.1561 62.5593 71.4332" fill="#BBBCBE"/>
<path d="M93.8596 116.594C93.2975 96.6564 78.4905 94.2332 78.4905 94.2332C78.4905 94.2332 64.0572 95.875 62.5593 116.594" fill="#BBBCBE"/>
<path d="M78.3089 99.7995C78.7632 99.7995 79.1315 99.4312 79.1315 98.9769C79.1315 98.5226 78.7632 98.1543 78.3089 98.1543C77.8546 98.1543 77.4863 98.5226 77.4863 98.9769C77.4863 99.4312 77.8546 99.7995 78.3089 99.7995Z" fill="white"/>
<path d="M78.3089 102.233C78.7632 102.233 79.1315 101.865 79.1315 101.41C79.1315 100.956 78.7632 100.588 78.3089 100.588C77.8546 100.588 77.4863 100.956 77.4863 101.41C77.4863 101.865 77.8546 102.233 78.3089 102.233Z" fill="white"/>
<path d="M78.3089 104.667C78.7632 104.667 79.1315 104.298 79.1315 103.844C79.1315 103.39 78.7632 103.021 78.3089 103.021C77.8546 103.021 77.4863 103.39 77.4863 103.844C77.4863 104.298 77.8546 104.667 78.3089 104.667Z" fill="white"/>
<path d="M67.4196 80.17C67.4196 80.17 69.644 86.6275 78.4322 91.8236C78.4322 91.8236 87.9608 86.9531 89.6574 79.9644C89.6574 79.9644 85.5615 79.1006 79.7176 82.11C73.7262 85.1982 67.4196 80.17 67.4196 80.17Z" fill="white"/>
<path d="M78.3878 114.668H66.6382C66.6382 114.668 67.1797 112.834 71.2928 111.775C74.2027 111.028 75.2447 110.61 76.4786 109.623C77.3381 108.887 77.9943 107.943 78.3843 106.881L78.3878 114.668Z" fill="white"/>
<path d="M78.3809 114.654H90.1442C90.1442 114.654 89.6129 112.821 85.4861 111.762C82.5762 111.018 81.5342 110.6 80.3003 109.609C79.4408 108.873 78.7846 107.929 78.3946 106.867L78.3809 114.654Z" fill="white"/>
<path d="M52.2528 137.845C52.2444 137.276 52.3242 136.71 52.4893 136.166C52.627 135.706 52.8607 135.281 53.1748 134.918C53.4709 134.578 53.8416 134.312 54.2579 134.14C54.7185 133.955 55.2115 133.864 55.7077 133.873C56.2277 133.861 56.7441 133.96 57.2227 134.164C57.6416 134.346 58.0124 134.623 58.3058 134.973C58.6039 135.341 58.8232 135.767 58.9502 136.224C59.0963 136.752 59.1678 137.297 59.1627 137.845C59.1704 138.414 59.0918 138.98 58.9296 139.525C58.7902 139.984 58.5567 140.408 58.2441 140.772C57.9462 141.11 57.5744 141.375 57.1576 141.547C56.1999 141.915 55.1384 141.908 54.1859 141.526C53.7695 141.345 53.4019 141.068 53.1131 140.717C52.8167 140.347 52.5986 139.92 52.4722 139.463C52.3235 138.937 52.2496 138.392 52.2528 137.845ZM53.4113 137.845C53.4101 138.237 53.4561 138.627 53.5484 139.007C53.63 139.348 53.7716 139.672 53.9666 139.963C54.1471 140.234 54.3905 140.458 54.6761 140.615C54.9921 140.783 55.3465 140.865 55.7043 140.854C56.0213 140.868 56.3373 140.81 56.6282 140.683C56.9192 140.557 57.1776 140.366 57.3838 140.124C57.7951 139.642 58.0008 138.883 58.0008 137.845C58.0033 137.457 57.9572 137.07 57.8637 136.693C57.7814 136.351 57.6399 136.025 57.4455 135.73C57.2621 135.46 57.0179 135.235 56.7326 135.076C56.2906 134.85 55.7867 134.777 55.2987 134.866C54.8106 134.955 54.3655 135.202 54.0317 135.569C53.6204 136.073 53.4113 136.824 53.4113 137.845Z" fill="#929496"/>
<path d="M60.7634 134.017H65.4043V134.98H61.8602V137.057C61.9905 137.036 62.1516 137.012 62.3469 136.992C62.537 136.97 62.7281 136.959 62.9193 136.957C63.3104 136.956 63.7007 136.993 64.0847 137.067C64.4289 137.132 64.7587 137.259 65.0581 137.441C65.3401 137.609 65.5758 137.844 65.7436 138.126C65.9214 138.462 66.0077 138.839 65.9938 139.22C66.0042 139.613 65.9158 140.003 65.7368 140.354C65.5704 140.664 65.3361 140.932 65.0513 141.139C64.7519 141.355 64.4148 141.513 64.0573 141.605C63.6683 141.709 63.2672 141.761 62.8645 141.759H62.3984C62.2201 141.759 62.0385 141.759 61.8465 141.732C61.6546 141.705 61.4695 141.701 61.2844 141.677C61.1128 141.658 60.9423 141.629 60.7737 141.591L60.7634 134.017ZM62.9845 140.81C63.2225 140.812 63.4598 140.783 63.6905 140.724C63.8999 140.671 64.0983 140.582 64.2766 140.46C64.4516 140.34 64.5935 140.178 64.6893 139.989C64.7851 139.8 64.8318 139.589 64.825 139.377C64.8368 139.114 64.7801 138.851 64.6605 138.616C64.5548 138.431 64.4008 138.278 64.2149 138.174C64.0146 138.067 63.7962 137.997 63.5706 137.968C63.3182 137.936 63.0641 137.92 62.8097 137.921H62.5629L62.2852 137.944C62.1991 137.95 62.1133 137.96 62.0282 137.975L61.8602 138.01V140.735C61.9279 140.751 61.9966 140.762 62.0659 140.769L62.3504 140.789C62.4532 140.789 62.5595 140.789 62.6691 140.789L62.9845 140.81Z" fill="#929496"/>
<path d="M71.824 134.98H69.4247C69.3905 135.699 69.3459 136.351 69.3014 136.947C69.2568 137.543 69.1917 138.071 69.1197 138.551C69.0584 138.976 68.9726 139.397 68.8626 139.813C68.7764 140.143 68.6533 140.462 68.4959 140.765C68.3496 141.069 68.1217 141.327 67.8378 141.509C67.6045 141.652 67.3366 141.728 67.0632 141.728C66.9369 141.73 66.8108 141.721 66.6861 141.701C66.5833 141.683 66.4823 141.655 66.3845 141.619L66.5251 140.7C66.6114 140.722 66.7 140.733 66.789 140.735C66.8805 140.734 66.9711 140.716 67.0563 140.683C67.1561 140.648 67.2472 140.592 67.3237 140.519C67.4257 140.426 67.5114 140.317 67.5773 140.196C67.7073 139.954 67.8096 139.697 67.8824 139.432C67.9943 139.029 68.079 138.619 68.136 138.205C68.208 137.711 68.2662 137.118 68.3142 136.43C68.3622 135.741 68.3965 134.935 68.4205 134.03H72.9277V141.687H71.8309L71.824 134.98Z" fill="#929496"/>
<path d="M74.5283 137.845C74.52 137.276 74.5997 136.71 74.7648 136.166C74.9035 135.706 75.137 135.281 75.4503 134.918C75.7477 134.58 76.1181 134.314 76.5334 134.14C76.9942 133.956 77.487 133.865 77.9833 133.873C78.5032 133.861 79.0197 133.96 79.4982 134.164C79.9176 134.345 80.2886 134.622 80.5813 134.973C80.8805 135.341 81.101 135.767 81.2291 136.224C81.3752 136.752 81.4467 137.297 81.4416 137.845C81.45 138.414 81.3702 138.98 81.2051 139.525C81.0673 139.984 80.8337 140.409 80.5196 140.772C80.2211 141.111 79.848 141.376 79.4297 141.547C78.4731 141.915 77.4128 141.907 76.4614 141.526C76.045 141.345 75.6774 141.068 75.3886 140.717C75.0922 140.347 74.8742 139.92 74.7477 139.463C74.599 138.937 74.5251 138.392 74.5283 137.845ZM75.6868 137.845C75.6839 138.237 75.7299 138.627 75.8239 139.007C75.9059 139.347 76.0462 139.671 76.2386 139.963C76.4275 140.248 76.6861 140.479 76.9897 140.635C77.2933 140.791 77.6318 140.866 77.973 140.854C78.2901 140.869 78.6063 140.811 78.8974 140.684C79.1885 140.558 79.4468 140.366 79.6525 140.124C80.0661 139.642 80.2729 138.883 80.2729 137.845C80.2737 137.457 80.2276 137.07 80.1358 136.693C80.0542 136.352 79.9126 136.029 79.7176 135.737C79.5253 135.469 79.2747 135.248 78.9846 135.09C78.6946 134.932 78.3726 134.842 78.0428 134.827C77.7131 134.811 77.384 134.871 77.0805 135C76.7769 135.13 76.5067 135.327 76.2901 135.576C75.8879 136.067 75.6868 136.824 75.6868 137.845Z" fill="#929496"/>
<path d="M86.2985 134.017H87.3268V137.54L87.8272 137.386L90.1579 134.017H91.3747L89.0097 137.341L88.5161 137.701L89.1297 138.15L91.7449 141.674H90.4218L87.8615 138.174H87.3268V141.674H86.2985V138.04L85.7981 138.195L83.248 141.674H81.9901L84.571 138.246L85.1503 137.831L84.595 137.444L82.1546 134.017H83.4228L85.7638 137.406H86.2985V134.017Z" fill="#929496"/>
<path d="M94.3291 138.195H93.7944V141.674H92.701V134.017H93.7944V137.54L94.2983 137.386L97.0403 134.017H98.2879L95.5459 137.297L95.0318 137.67L95.6316 138.109L98.6752 141.674H97.3042L94.3291 138.195Z" fill="#929496"/>
<path d="M104.032 139.651H101.03L100.228 141.674H99.1345L102.284 133.907H102.853L106.014 141.674H104.855L104.032 139.651ZM101.356 138.753H103.717L102.826 136.577L102.531 135.405H102.511L102.219 136.597L101.356 138.753Z" fill="#929496"/>
<path d="M45.6274 150.973C45.6191 150.404 45.6989 149.837 45.8639 149.293C46.0052 148.835 46.2384 148.41 46.5494 148.045C46.8447 147.706 47.2157 147.44 47.6325 147.271C48.589 146.909 49.646 146.916 50.5974 147.291C51.0161 147.474 51.3869 147.75 51.6805 148.1C51.9799 148.469 52.1993 148.896 52.3248 149.355C52.4738 149.881 52.5465 150.426 52.5408 150.973C52.5495 151.541 52.4697 152.108 52.3043 152.652C52.1663 153.112 51.9326 153.537 51.6188 153.9C51.321 154.239 50.9493 154.505 50.5322 154.678C50.0714 154.862 49.5786 154.953 49.0824 154.945C48.5601 154.958 48.0413 154.858 47.5606 154.654C47.1447 154.472 46.7773 154.195 46.4877 153.845C46.1918 153.476 45.9749 153.05 45.8502 152.594C45.6987 152.067 45.6237 151.521 45.6274 150.973ZM46.7894 150.973C46.786 151.364 46.8321 151.754 46.9265 152.134C47.0069 152.475 47.1473 152.799 47.3412 153.091C47.5207 153.363 47.7644 153.586 48.0507 153.742C48.3667 153.91 48.7212 153.993 49.079 153.982C49.3956 153.996 49.7113 153.938 50.0023 153.812C50.2932 153.686 50.5517 153.496 50.7584 153.255C51.1697 152.769 51.3754 152.008 51.3754 150.973C51.3779 150.584 51.3319 150.198 51.2383 149.821C51.1572 149.481 51.0168 149.159 50.8236 148.868C50.6428 148.595 50.3996 148.37 50.1141 148.21C49.6715 147.984 49.1671 147.911 48.6785 148C48.1899 148.089 47.7441 148.336 47.4097 148.704C46.995 149.197 46.7894 149.951 46.7894 150.973Z" fill="#929496"/>
<path d="M57.4009 147.144H58.4291V150.668L58.933 150.513L61.2637 147.144H62.477L60.1155 150.469L59.639 150.832L60.2526 151.281L62.8678 154.805H61.5242L58.9535 151.302H58.4188V154.805H57.3906V151.171L56.8867 151.322L54.3366 154.805H53.0787L55.6631 151.377L56.2423 150.959L55.6837 150.565L53.2433 147.137H54.5114L56.8559 150.53H57.3906L57.4009 147.144Z" fill="#929496"/>
<path d="M68.8934 149.739L68.9586 148.895H68.914L68.3896 149.759L64.4616 154.805H63.7761V147.144H64.8695V152.244L64.7735 153.074H64.8284L65.3733 152.21L69.291 147.144H69.9765V154.805H68.8934V149.739Z" fill="#929496"/>
<path d="M78.7134 156.203H77.9593L77.7708 154.805H71.944L71.7692 156.203H71.0151V153.841H71.8686C71.9861 153.666 72.0871 153.48 72.1702 153.286C72.3404 152.887 72.4757 152.474 72.5747 152.052C72.7315 151.387 72.846 150.713 72.9174 150.033C73.0207 149.074 73.0654 148.109 73.0511 147.144H77.6131V153.841H78.7065L78.7134 156.203ZM76.5232 153.841V148.107H74.0622C74.0348 148.882 73.9868 149.571 73.9251 150.181C73.8634 150.791 73.788 151.329 73.6955 151.795C73.6208 152.203 73.5189 152.604 73.3904 152.998C73.3004 153.289 73.1857 153.571 73.0477 153.841H76.5232Z" fill="#929496"/>
<path d="M84.0055 152.779H81.003L80.2044 154.805H79.1075L82.2609 147.041H82.8298L85.9935 154.811H84.8315L84.0055 152.779ZM81.3286 151.881H83.6902L82.8127 149.704L82.5214 148.536H82.4974L82.206 149.725L81.3286 151.881Z" fill="#929496"/>
<path d="M87.0593 147.144H91.6865V148.107H88.1424V150.417H91.3712V151.377H88.1424V153.841H91.7311V154.805H87.0593V147.144Z" fill="#929496"/>
<path d="M98.9426 148.107H96.3583V154.805H95.2649V148.107H92.684V147.144H98.9426V148.107Z" fill="#929496"/>
<path d="M105.013 154.475C104.738 154.665 104.424 154.791 104.094 154.842C103.704 154.913 103.308 154.947 102.912 154.945C102.437 154.947 101.965 154.867 101.517 154.709C101.081 154.555 100.684 154.31 100.351 153.989C100.001 153.637 99.7288 153.216 99.5527 152.751C99.3449 152.182 99.245 151.579 99.258 150.973C99.2458 150.347 99.3625 149.725 99.6007 149.146C99.7945 148.68 100.085 148.26 100.454 147.915C100.796 147.606 101.199 147.373 101.637 147.23C102.056 147.086 102.496 147.012 102.939 147.01C103.334 147.004 103.728 147.029 104.118 147.086C104.383 147.126 104.644 147.192 104.896 147.281L104.656 148.224C104.136 148.027 103.58 147.941 103.025 147.97C102.699 147.97 102.376 148.024 102.069 148.131C101.756 148.239 101.472 148.414 101.236 148.645C100.975 148.908 100.775 149.225 100.65 149.574C100.495 150.026 100.422 150.502 100.434 150.979C100.425 151.424 100.495 151.868 100.639 152.289C100.764 152.638 100.96 152.958 101.215 153.228C101.457 153.48 101.752 153.674 102.079 153.797C102.427 153.929 102.797 153.994 103.169 153.989C103.481 153.995 103.793 153.961 104.098 153.889C104.331 153.836 104.555 153.752 104.766 153.639L105.013 154.475Z" fill="#929496"/>
<path d="M111.306 154.805H110.209V151.542L109.04 151.785L106.984 154.805H105.715L107.563 152.131L108.286 151.651C108.014 151.604 107.749 151.521 107.498 151.404C107.263 151.295 107.05 151.145 106.867 150.962C106.688 150.777 106.547 150.558 106.452 150.318C106.349 150.041 106.299 149.746 106.305 149.451C106.293 149.061 106.38 148.674 106.559 148.326C106.72 148.024 106.956 147.768 107.244 147.583C107.552 147.385 107.893 147.245 108.252 147.171C108.659 147.086 109.073 147.043 109.489 147.045C109.757 147.045 110.055 147.045 110.38 147.086C110.692 147.107 111.001 147.153 111.306 147.223V154.805ZM109.424 148.008C109.178 148.008 108.933 148.03 108.691 148.073C108.472 148.112 108.262 148.189 108.07 148.302C107.885 148.412 107.732 148.568 107.625 148.755C107.507 148.972 107.45 149.217 107.46 149.464C107.451 149.702 107.504 149.939 107.614 150.15C107.715 150.332 107.86 150.485 108.036 150.596C108.229 150.711 108.44 150.794 108.66 150.839C108.91 150.889 109.165 150.915 109.421 150.914H110.195V148.069C110.083 148.04 109.968 148.023 109.852 148.018C109.767 148.011 109.613 148.008 109.424 148.008Z" fill="#929496"/>
</g>
<defs>
<clipPath id="clip0_1:1369">
<rect width="143.98" height="200" fill="white"/>
</clipPath>
</defs>
</svg>
